<svg xmlns="http://www.w3.org/2000/svg" width="390" height="844" viewBox="0 0 390 844" role="img" aria-label="Filter Modal sample screen">
  <defs><filter id="s"><feDropShadow dx="0" dy="8" stdDeviation="8" flood-opacity=".16"/></filter><style>.t{font-family:system-ui,-apple-system,BlinkMacSystemFont,sans-serif}.b{fill:#0D47A1}.a{fill:#F5A623}.m{fill:#2DBE7F}.txt{fill:#222}.road{stroke:#fff;stroke-width:6;stroke-linecap:round}.chip{font-size:13px;font-weight:800}</style></defs>
  <rect width="390" height="844" rx="42" fill="#111"/><rect x="10" y="10" width="370" height="824" rx="34" fill="#fff"/><rect x="145" y="22" width="100" height="26" rx="13" fill="#000"/><text x="32" y="40" class="t" font-size="13" font-weight="700">9:41</text>
  <g opacity=".38"><text x="62" y="82" class="t" font-size="13" fill="#0D47A1" font-weight="800">koto okaimono doko</text><text x="62" y="99" class="t" font-size="10" fill="#33B8AE" font-weight="700">こうとうお買い物どこ</text><rect x="28" y="120" width="334" height="42" rx="21" fill="#fff" stroke="#E5E7EB"/><text x="52" y="146" class="t" font-size="13" fill="#777">⌕  店舗名・住所で検索</text><g class="t" font-size="11" font-weight="700"><rect x="28" y="178" width="48" height="28" rx="14" class="b"/><text x="42" y="197" fill="#fff">すべて</text><rect x="84" y="178" width="58" height="28" rx="14" fill="#fff" stroke="#0D47A1"/><text x="99" y="197" class="b">A・B券</text></g><rect x="10" y="218" width="370" height="380" fill="#F4F0EA"/><path d="M0 320C95 250 170 350 370 270" stroke="#BFE3F8" stroke-width="34" fill="none"/><path d="M25 40h310M10 118h360M30 210h320M88 0v380M185 0v380M285 0v380" class="road"/></g>
  <rect x="10" y="252" width="370" height="582" rx="30" fill="#fff" filter="url(#s)"/><rect x="172" y="266" width="46" height="5" rx="3" fill="#D1D5DB"/><text x="195" y="316" text-anchor="middle" class="t" font-size="26" font-weight="900" fill="#222">絞り込み</text><circle cx="340" cy="305" r="26" fill="#F6F7F9"/><text x="331" y="315" font-size="28" fill="#555">×</text>
  <g class="t"><text x="38" y="370" font-size="18" font-weight="900" fill="#222">商品券の種類</text><rect x="38" y="394" width="66" height="36" rx="18" class="b"/><text x="57" y="418" class="chip" fill="#fff">すべて</text><rect x="116" y="394" width="78" height="36" rx="18" fill="#fff" stroke="#0D47A1"/><text x="139" y="418" class="chip" fill="#0D47A1">A・B券</text><rect x="206" y="394" width="86" height="36" rx="18" fill="#fff" stroke="#F5A623"/><text x="226" y="418" class="chip" fill="#F5A623">B券のみ</text><line x1="38" y1="460" x2="352" y2="460" stroke="#E5E7EB"/>
  <text x="38" y="496" font-size="18" font-weight="900" fill="#222">利用形態</text><rect x="38" y="520" width="66" height="36" rx="18" class="b"/><text x="57" y="544" class="chip" fill="#fff">すべて</text><rect x="116" y="520" width="54" height="36" rx="18" fill="#fff" stroke="#2DBE7F"/><text x="135" y="544" class="chip" fill="#2DBE7F">紙</text><rect x="184" y="520" width="88" height="36" rx="18" fill="#fff" stroke="#2DBE7F"/><text x="206" y="544" class="chip" fill="#2DBE7F">デジタル</text><line x1="38" y1="586" x2="352" y2="586" stroke="#E5E7EB"/>
  <text x="38" y="622" font-size="18" font-weight="900" fill="#222">ジャンル</text><rect x="38" y="646" width="66" height="36" rx="18" class="b"/><text x="57" y="670" class="chip" fill="#fff">すべて</text><rect x="116" y="646" width="105" height="36" rx="18" fill="#fff" stroke="#0D47A1"/><text x="134" y="670" class="chip" fill="#0D47A1">食べる・飲む</text><rect x="232" y="646" width="56" height="36" rx="18" fill="#fff" stroke="#0D47A1"/><text x="249" y="670" class="chip" fill="#0D47A1">買う</text><rect x="38" y="694" width="122" height="36" rx="18" fill="#fff" stroke="#6842C2"/><text x="58" y="718" class="chip" fill="#6842C2">暮らし・住まい</text>
  <text x="38" y="766" font-size="18" font-weight="900" fill="#222">現在地からの距離</text><rect x="38" y="790" width="66" height="36" rx="18" class="b"/><text x="56" y="814" class="chip" fill="#fff">300m</text><rect x="116" y="790" width="66" height="36" rx="18" fill="#fff" stroke="#0D47A1"/><text x="136" y="814" class="chip" fill="#0D47A1">500m</text><rect x="194" y="790" width="60" height="36" rx="18" fill="#fff" stroke="#0D47A1"/><text x="215" y="814" class="chip" fill="#0D47A1">1km</text></g>
  <rect x="38" y="715" width="314" height="52" rx="26" class="b" transform="translate(0 80)"/><text x="195" y="828" text-anchor="middle" class="t" font-size="17" font-weight="900" fill="#fff">この条件で表示</text>
</svg>