<svg xmlns="http://www.w3.org/2000/svg" width="390" height="844" viewBox="0 0 390 844" role="img" aria-label="Map Home sample screen">
  <defs><filter id="s"><feDropShadow dx="0" dy="8" stdDeviation="8" flood-opacity=".16"/></filter><style>.t{font-family:system-ui,-apple-system,BlinkMacSystemFont,sans-serif}.b{fill:#0D47A1}.a{fill:#F5A623}.m{fill:#2DBE7F}.g{fill:#E5E7EB}.txt{fill:#333}.sm{font-size:10px}.md{font-size:13px}.lg{font-size:20px;font-weight:800}.chip{font-size:11px;font-weight:700}.road{stroke:#fff;stroke-width:6;stroke-linecap:round}</style></defs>
  <rect width="390" height="844" rx="42" fill="#111"/><rect x="10" y="10" width="370" height="824" rx="34" fill="#fff"/><rect x="145" y="22" width="100" height="26" rx="13" fill="#000"/>
  <text x="32" y="40" class="t md" font-weight="700">9:41</text><text x="260" y="40" class="t sm">▮▮▮  Wi‑Fi  ▭</text>
  <g transform="translate(28 62)"><path d="M0 18h24v27H0z" fill="#33B8AE"/><path d="M5 18v-7a7 7 0 0114 0v7" stroke="#33B8AE" stroke-width="3" fill="none"/><path d="M7 29c0-5 7-6 9-1 3-5 9-4 9 1 0 7-9 12-9 12s-9-5-9-12z" fill="#fff"/></g>
  <text x="62" y="82" class="t md b" font-weight="800">koto okaimono doko</text><text x="62" y="99" class="t sm" fill="#33B8AE" font-weight="700">こうとうお買い物どこ</text><circle cx="344" cy="82" r="18" fill="#fff" filter="url(#s)"/><text x="336" y="89" font-size="18">⚙</text>
  <rect x="28" y="120" width="334" height="42" rx="21" fill="#fff" stroke="#E5E7EB" filter="url(#s)"/><text x="52" y="146" class="t md" fill="#777">⌕  店舗名・住所で検索</text>
  <g class="t chip"><rect x="28" y="178" width="48" height="28" rx="14" class="b"/><text x="42" y="197" fill="#fff">すべて</text><rect x="84" y="178" width="58" height="28" rx="14" fill="#fff" stroke="#0D47A1"/><text x="99" y="197" class="b">A・B券</text><rect x="150" y="178" width="64" height="28" rx="14" fill="#fff" stroke="#F5A623"/><text x="162" y="197" fill="#F5A623">B券のみ</text><rect x="222" y="178" width="38" height="28" rx="14" fill="#fff" stroke="#2DBE7F"/><text x="235" y="197" fill="#2DBE7F">紙</text><rect x="268" y="178" width="72" height="28" rx="14" fill="#fff" stroke="#2DBE7F"/><text x="282" y="197" fill="#2DBE7F">デジタル</text></g>
  <g transform="translate(10 218)"><rect width="370" height="452" fill="#F4F0EA"/><path d="M0 330C95 270 170 380 370 295" stroke="#BFE3F8" stroke-width="34" fill="none"/><path d="M25 40h310M10 118h360M30 210h320M60 300h250M80 400h270M88 0v452M185 0v452M285 0v452" class="road"/><path d="M40 70h80v60H40zM250 55h74v60h-74zM42 330h80v70H42z" fill="#B9E59D" opacity=".75"/><text x="160" y="170" class="t md txt">江東区役所</text><text x="55" y="120" class="t sm" fill="#16883A">木場公園</text><text x="270" y="205" class="t sm" fill="#0D47A1">東陽町駅</text></g>
  <g class="t" font-weight="800" text-anchor="middle"><path d="M150 300c19 0 34 15 34 34 0 26-34 45-34 45s-34-19-34-45c0-19 15-34 34-34z" class="b"/><text x="150" y="340" fill="#fff" font-size="14">A・B</text><path d="M225 340c19 0 34 15 34 34 0 26-34 45-34 45s-34-19-34-45c0-19 15-34 34-34z" class="a"/><text x="225" y="380" fill="#fff" font-size="18">B</text><path d="M315 465c18 0 32 14 32 32 0 25-32 43-32 43s-32-18-32-43c0-18 14-32 32-32z" class="b"/><text x="315" y="502" fill="#fff" font-size="13">A・B</text><path d="M285 286c15 0 27 12 27 27 0 20-27 35-27 35s-27-15-27-35c0-15 12-27 27-27z" fill="#777"/><text x="285" y="320" fill="#fff" font-size="16">▣</text></g>
  <circle cx="330" cy="628" r="28" fill="#fff" filter="url(#s)"/><text x="318" y="622" font-size="22" class="b">◎</text><text x="310" y="643" class="t sm b" font-weight="800">現在地</text>
  <rect x="28" y="690" width="334" height="40" rx="14" fill="#fff" filter="url(#s)"/><text x="48" y="715" class="t sm txt">▣  データ基準日: 2026-06-24</text><rect x="300" y="700" width="48" height="20" rx="10" fill="#DDF8EB"/><text x="310" y="715" class="t sm" fill="#159A8C" font-weight="800">非公式</text>
  <rect x="10" y="750" width="370" height="84" rx="28" fill="#fff" filter="url(#s)"/><rect x="172" y="760" width="46" height="5" rx="3" fill="#D1D5DB"/><circle cx="60" cy="794" r="28" fill="#DDEBFF"/><text x="49" y="804" font-size="26" class="b">▣</text><text x="100" y="790" class="t lg">12件の対象店舗</text><text x="100" y="813" class="t md" fill="#666">地図上のピンを選択してください</text>
</svg>