<svg xmlns="http://www.w3.org/2000/svg" width="390" height="844" viewBox="0 0 390 844" role="img" aria-label="Settings sample screen">
  <defs><filter id="s"><feDropShadow dx="0" dy="8" stdDeviation="8" flood-opacity=".14"/></filter><style>.t{font-family:system-ui,-apple-system,BlinkMacSystemFont,sans-serif}.b{fill:#0D47A1}.m{fill:#2DBE7F}.txt{fill:#222}.cap{font-size:13px}.head{font-size:18px;font-weight:900;fill:#0D47A1}</style></defs>
  <rect width="390" height="844" rx="42" fill="#111"/><rect x="10" y="10" width="370" height="824" rx="34" fill="#F7FBFF"/><rect x="145" y="22" width="100" height="26" rx="13" fill="#000"/><text x="32" y="40" class="t" font-size="13" font-weight="700">9:41</text>
  <circle cx="48" cy="82" r="18" fill="#fff" filter="url(#s)"/><text x="40" y="90" font-size="28" fill="#333">‹</text><text x="195" y="118" text-anchor="middle" class="t" font-size="28" font-weight="900" fill="#222">設定</text><g transform="translate(108 62) scale(.7)"><path d="M0 18h24v27H0z" fill="#33B8AE"/><path d="M5 18v-7a7 7 0 0114 0v7" stroke="#33B8AE" stroke-width="3" fill="none"/><path d="M7 29c0-5 7-6 9-1 3-5 9-4 9 1 0 7-9 12-9 12s-9-5-9-12z" fill="#fff"/></g><text x="132" y="82" class="t" font-size="13" fill="#0D47A1" font-weight="800">koto okaimono doko</text><text x="132" y="98" class="t" font-size="10" fill="#33B8AE" font-weight="700">こうとうお買い物どこ</text>
  <text x="28" y="175" class="t head">データ</text><rect x="28" y="195" width="334" height="180" rx="18" fill="#fff" filter="url(#s)"/>
  <g transform="translate(52 236)"><path d="M20 40c-20-23 6-54 32-38 12-29 55-24 61 8 28-3 45 31 24 51H20z" fill="#EDF5FF" stroke="#9CC0E8" stroke-width="3"/><path d="M62 24a24 24 0 0140 18" fill="none" stroke="#0D47A1" stroke-width="5"/><path d="M98 40l5-16 11 12" fill="#0D47A1"/><rect x="53" y="70" width="44" height="32" rx="4" fill="#0D47A1"/></g>
  <g class="t" font-size="15"><text x="178" y="238" fill="#333">バージョン</text><text x="312" y="238" text-anchor="end" fill="#555">2026-06-24.1</text><line x1="178" y1="258" x2="342" y2="258" stroke="#E5E7EB"/><text x="178" y="295" fill="#333">データ基準日</text><text x="312" y="295" text-anchor="end" fill="#555">2026-06-24</text><line x1="178" y1="315" x2="342" y2="315" stroke="#E5E7EB"/><text x="178" y="352" fill="#333">最終確認</text><text x="332" y="352" text-anchor="end" fill="#555">2026-06-28 10:20</text></g>
  <rect x="52" y="388" width="286" height="48" rx="14" fill="#fff" filter="url(#s)"/><text x="106" y="419" class="t" font-size="16" fill="#159A8C" font-weight="900">↻  最新データを確認</text>
  <text x="28" y="482" class="t head">位置情報</text><rect x="28" y="502" width="334" height="120" rx="18" fill="#fff" filter="url(#s)"/><circle cx="68" cy="540" r="26" fill="#DDEBFF"/><text x="55" y="549" font-size="28" fill="#0D47A1">◎</text><text x="116" y="532" class="t" font-size="15" fill="#333">現在地周辺の店舗検索にのみ使用</text><text x="116" y="556" class="t" font-size="15" fill="#333">外部サーバーには送信しません</text><text x="330" y="552" font-size="30" fill="#333">›</text><line x1="52" y1="578" x2="338" y2="578" stroke="#E5E7EB"/><text x="52" y="608" class="t" font-size="15" fill="#333">位置情報の使用</text><rect x="300" y="590" width="42" height="24" rx="12" fill="#0D47A1"/><circle cx="330" cy="602" r="11" fill="#fff"/>
  <text x="28" y="667" class="t head">アプリ情報</text><rect x="28" y="687" width="334" height="128" rx="18" fill="#fff" filter="url(#s)"/><g class="t" font-size="15" fill="#333"><circle cx="60" cy="720" r="20" fill="#DDEBFF"/><text x="53" y="728" font-size="24" fill="#0D47A1">ⓘ</text><text x="98" y="725">非公式アプリ</text><text x="330" y="728" font-size="28">›</text><line x1="52" y1="746" x2="338" y2="746" stroke="#E5E7EB"/><circle cx="60" cy="770" r="20" fill="#DDEBFF"/><text x="51" y="778" font-size="20" fill="#0D47A1">⌘</text><text x="98" y="775">GitHub</text><text x="330" y="778" font-size="28">›</text><line x1="52" y1="794" x2="338" y2="794" stroke="#E5E7EB"/><circle cx="60" cy="813" r="20" fill="#DDEBFF"/><text x="52" y="820" font-size="20" fill="#0D47A1">▤</text><text x="98" y="818">ライセンス</text><text x="330" y="821" font-size="28">›</text></g>
</svg>