<svg xmlns="http://www.w3.org/2000/svg" width="390" height="844" viewBox="0 0 390 844" role="img" aria-label="Store Detail sample screen">
  <defs><filter id="s"><feDropShadow dx="0" dy="8" stdDeviation="8" flood-opacity=".14"/></filter><style>.t{font-family:system-ui,-apple-system,BlinkMacSystemFont,sans-serif}.b{fill:#0D47A1}.m{fill:#2DBE7F}.txt{fill:#222}.road{stroke:#fff;stroke-width:5;stroke-linecap:round}.lab{font-size:13px;font-weight:900}</style></defs>
  <rect width="390" height="844" rx="42" fill="#111"/><rect x="10" y="10" width="370" height="824" rx="34" fill="#fff"/><rect x="145" y="22" width="100" height="26" rx="13" fill="#000"/><text x="32" y="40" class="t" font-size="13" font-weight="700">9:41</text>
  <text x="42" y="105" font-size="28" fill="#333">‹</text><text x="195" y="106" text-anchor="middle" class="t" font-size="22" font-weight="900" fill="#222">店舗詳細</text>
  <rect x="28" y="132" width="334" height="652" rx="20" fill="#fff" stroke="#E5E7EB" filter="url(#s)"/>
  <g transform="translate(48 160)"><rect width="112" height="96" rx="12" fill="#F8EFE3"/><rect x="14" y="42" width="84" height="45" fill="#8B6B4A"/><rect x="10" y="22" width="92" height="28" fill="#F5A623"/><path d="M10 45c10 13 20 13 31 0 10 13 20 13 31 0 10 13 20 13 30 0" fill="#E0A32E"/><rect x="28" y="58" width="20" height="29" fill="#4B3427"/><rect x="57" y="57" width="28" height="20" fill="#D7B98F"/><text x="56" y="18" text-anchor="middle" class="t" font-size="10" font-weight="800" fill="#6B4B25">カトレア</text></g>
  <text x="180" y="178" class="t" font-size="20" font-weight="900" fill="#222">元祖カレーパン</text><text x="180" y="206" class="t" font-size="20" font-weight="900" fill="#222">カトレア</text><rect x="180" y="224" width="62" height="28" rx="14" fill="#fff" stroke="#0D47A1"/><text x="197" y="243" class="t lab" fill="#0D47A1">A・B券</text><rect x="252" y="224" width="45" height="28" rx="14" fill="#fff" stroke="#2DBE7F"/><text x="267" y="243" class="t lab" fill="#2DBE7F">紙</text><text x="180" y="285" class="t" font-size="16" fill="#222">買う / 菓子・パン</text>
  <rect x="48" y="320" width="294" height="196" rx="16" fill="#fff" stroke="#E5E7EB"/><text x="66" y="366" font-size="30" fill="#0D47A1">●</text><text x="116" y="354" class="t" font-size="15" font-weight="900" fill="#222">住所</text><text x="116" y="381" class="t" font-size="15" fill="#333">東京都江東区森下1-6-10</text><text x="116" y="404" class="t" font-size="15" fill="#333">レックス森下101</text><line x1="66" y1="428" x2="324" y2="428" stroke="#E5E7EB"/>
  <text x="68" y="464" font-size="24" fill="#0D47A1">☎</text><text x="116" y="458" class="t" font-size="15" font-weight="900" fill="#222">電話番号</text><text x="116" y="485" class="t" font-size="16" fill="#0D47A1">3635-1464</text></rect>
  <rect x="48" y="535" width="136" height="48" rx="24" fill="#fff" stroke="#0D47A1"/><text x="70" y="565" class="t" font-size="15" fill="#0D47A1" font-weight="900">↗ 経路を見る</text><rect x="200" y="535" width="142" height="48" rx="24" fill="#fff" stroke="#2DBE7F"/><text x="218" y="565" class="t" font-size="15" fill="#159A8C" font-weight="900">□ 公式ページを見る</text>
  <g transform="translate(48 610)"><rect width="294" height="138" rx="16" fill="#F4F0EA"/><path d="M0 105C75 60 148 125 294 82" stroke="#BFE3F8" stroke-width="24" fill="none"/><path d="M15 28h250M20 75h250M68 0v138M162 0v138M232 0v138" class="road"/><text x="18" y="70" class="t" font-size="12" fill="#0D47A1" font-weight="900">森下駅</text><path d="M150 40c19 0 34 15 34 34 0 26-34 45-34 45s-34-19-34-45c0-19 15-34 34-34z" class="b"/><circle cx="150" cy="72" r="14" fill="#fff"/></g>
  <text x="48" y="772" class="t" font-size="11" fill="#666">※地図上のピンは店舗の位置を示しています。</text>
</svg>