<svg xmlns="http://www.w3.org/2000/svg" width="390" height="844" viewBox="0 0 390 844" role="img" aria-label="Store Bottom Sheet sample screen">
  <defs><filter id="s"><feDropShadow dx="0" dy="8" stdDeviation="8" flood-opacity=".16"/></filter><style>.t{font-family:system-ui,-apple-system,BlinkMacSystemFont,sans-serif}.b{fill:#0D47A1}.a{fill:#F5A623}.m{fill:#2DBE7F}.txt{fill:#333}.road{stroke:#fff;stroke-width:6;stroke-linecap:round}.chip{font-size:11px;font-weight:700}</style></defs>
  <rect width="390" height="844" rx="42" fill="#111"/><rect x="10" y="10" width="370" height="824" rx="34" fill="#fff"/><rect x="145" y="22" width="100" height="26" rx="13" fill="#000"/>
  <text x="32" y="40" class="t" font-size="13" font-weight="700">9:41</text><g transform="translate(28 62)"><path d="M0 18h24v27H0z" fill="#33B8AE"/><path d="M5 18v-7a7 7 0 0114 0v7" stroke="#33B8AE" stroke-width="3" fill="none"/><path d="M7 29c0-5 7-6 9-1 3-5 9-4 9 1 0 7-9 12-9 12s-9-5-9-12z" fill="#fff"/></g><text x="62" y="82" class="t" font-size="13" fill="#0D47A1" font-weight="800">koto okaimono doko</text><text x="62" y="99" class="t" font-size="10" fill="#33B8AE" font-weight="700">こうとうお買い物どこ</text><circle cx="344" cy="82" r="18" fill="#fff" filter="url(#s)"/><text x="336" y="89" font-size="18">⚙</text>
  <rect x="28" y="120" width="334" height="42" rx="21" fill="#fff" stroke="#E5E7EB" filter="url(#s)"/><text x="52" y="146" class="t" font-size="13" fill="#777">⌕  店舗名・住所で検索</text>
  <g class="t chip"><rect x="28" y="178" width="48" height="28" rx="14" class="b"/><text x="42" y="197" fill="#fff">すべて</text><rect x="84" y="178" width="58" height="28" rx="14" fill="#fff" stroke="#0D47A1"/><text x="99" y="197" class="b">A・B券</text><rect x="150" y="178" width="64" height="28" rx="14" fill="#fff" stroke="#F5A623"/><text x="162" y="197" fill="#F5A623">B券のみ</text><rect x="222" y="178" width="38" height="28" rx="14" fill="#fff" stroke="#2DBE7F"/><text x="235" y="197" fill="#2DBE7F">紙</text><rect x="268" y="178" width="72" height="28" rx="14" fill="#fff" stroke="#2DBE7F"/><text x="282" y="197" fill="#2DBE7F">デジタル</text></g>
  <g transform="translate(10 218)"><rect width="370" height="338" fill="#F4F0EA"/><path d="M0 260C95 210 170 310 370 230" stroke="#BFE3F8" stroke-width="30" fill="none"/><path d="M25 40h310M10 118h360M30 210h320M88 0v338M185 0v338M285 0v338" class="road"/><path d="M40 70h80v60H40zM250 55h74v60h-74z" fill="#B9E59D" opacity=".75"/><text x="160" y="170" class="t" font-size="13" fill="#333">江東区役所</text></g>
  <g class="t" font-weight="800" text-anchor="middle"><path d="M195 330c24 0 44 20 44 44 0 34-44 58-44 58s-44-24-44-58c0-24 20-44 44-44z" class="b"/><text x="195" y="382" fill="#fff" font-size="16">A・B</text><circle cx="195" cy="433" r="8" fill="#2B7DE1" stroke="#fff" stroke-width="4"/><path d="M285 300c17 0 31 14 31 31 0 22-31 38-31 38s-31-16-31-38c0-17 14-31 31-31z" class="a"/><text x="285" y="337" fill="#fff" font-size="16">B</text></g>
  <rect x="10" y="450" width="370" height="384" rx="30" fill="#fff" filter="url(#s)"/><rect x="172" y="464" width="46" height="5" rx="3" fill="#D1D5DB"/>
  <circle cx="68" cy="535" r="43" fill="#fff" stroke="#E5E7EB"/><text x="48" y="530" font-size="27">🍞</text><text x="51" y="558" class="t" font-size="11" font-weight="800" fill="#8B5E34">カトレア</text>
  <text x="122" y="520" class="t" font-size="21" font-weight="900" fill="#222">元祖カレーパン カトレア</text><rect x="122" y="538" width="62" height="28" rx="14" fill="#fff" stroke="#0D47A1"/><text x="139" y="557" class="t chip" fill="#0D47A1">A・B券</text><rect x="194" y="538" width="45" height="28" rx="14" fill="#fff" stroke="#2DBE7F"/><text x="209" y="557" class="t chip" fill="#2DBE7F">紙</text><text x="122" y="592" class="t" font-size="15" fill="#333">買う / 菓子・パン</text>
  <line x1="38" y1="612" x2="352" y2="612" stroke="#E5E7EB"/><text x="44" y="650" font-size="28" fill="#0D47A1">●</text><text x="86" y="643" class="t" font-size="15" fill="#333">東京都江東区森下1-6-10</text><text x="86" y="666" class="t" font-size="15" fill="#333">レックス森下101</text><line x1="38" y1="686" x2="352" y2="686" stroke="#E5E7EB"/><text x="47" y="724" font-size="24" fill="#0D47A1">♟</text><text x="86" y="718" class="t" font-size="15" fill="#333">現在地から 約320m</text>
  <rect x="38" y="750" width="142" height="48" rx="24" class="b"/><text x="70" y="781" class="t" font-size="16" fill="#fff" font-weight="800">↗ 経路を見る</text><rect x="200" y="750" width="142" height="48" rx="24" fill="#fff" stroke="#0D47A1"/><text x="222" y="781" class="t" font-size="15" fill="#0D47A1" font-weight="800">□ 公式ページを見る</text><rect x="38" y="814" width="304" height="34" rx="12" fill="#FAFAFA" stroke="#E5E7EB"/><text x="58" y="836" class="t" font-size="12" fill="#666">▣  データ基準日: 2026-06-24</text>
</svg>