<svg xmlns="http://www.w3.org/2000/svg" width="1200" height="900" viewBox="0 0 1200 900" role="img" aria-label="koto okaimono doko visual style guide">
  <defs>
    <filter id="shadow" x="-20%" y="-20%" width="140%" height="140%">
      <feDropShadow dx="0" dy="10" stdDeviation="10" flood-color="#0D47A1" flood-opacity="0.12"/>
    </filter>
    <filter id="soft" x="-20%" y="-20%" width="140%" height="140%">
      <feDropShadow dx="0" dy="6" stdDeviation="7" flood-color="#111827" flood-opacity="0.12"/>
    </filter>
    <linearGradient id="blue" x1="0" x2="1" y1="0" y2="1">
      <stop stop-color="#1E73D8"/><stop offset="1" stop-color="#0D47A1"/>
    </linearGradient>
    <linearGradient id="amber" x1="0" x2="1" y1="0" y2="1">
      <stop stop-color="#FFC14A"/><stop offset="1" stop-color="#F5A623"/>
    </linearGradient>
    <linearGradient id="mint" x1="0" x2="1" y1="0" y2="1">
      <stop stop-color="#55D99D"/><stop offset="1" stop-color="#2DBE7F"/>
    </linearGradient>
    <style>
      .title{font:800 54px ui-rounded, system-ui, -apple-system, BlinkMacSystemFont, sans-serif;fill:#0D47A1;letter-spacing:.3px}
      .sub{font:500 20px system-ui,-apple-system,BlinkMacSystemFont,sans-serif;fill:#333333}
      .h{font:800 22px system-ui,-apple-system,BlinkMacSystemFont,sans-serif;fill:#333333}
      .label{font:700 24px system-ui,-apple-system,BlinkMacSystemFont,sans-serif;fill:#333333}
      .small{font:500 16px system-ui,-apple-system,BlinkMacSystemFont,sans-serif;fill:#666}
      .badge{font:800 24px system-ui,-apple-system,BlinkMacSystemFont,sans-serif}
      .white{fill:#fff}.line{stroke:#E5E7EB;stroke-width:2;stroke-dasharray:5 7}.muted{fill:#E5E7EB}.road{stroke:#fff;stroke-width:14;stroke-linecap:round}
    </style>
  </defs>

  <rect width="1200" height="900" fill="#FFFDF8"/>
  <text x="36" y="78" class="title">koto okaimono doko</text>
  <text x="38" y="115" class="sub">江東区のお買い物券が使えるお店を探せるマップアプリ（非公式）</text>

  <g transform="translate(730 40)" opacity=".9">
    <path d="M0 62h410" stroke="#CFE5F8" stroke-width="4" stroke-linecap="round"/>
    <path d="M30 62C58 26 118 26 148 62" fill="none" stroke="#2F74B9" stroke-width="5"/>
    <path d="M30 62V31M148 62V31" stroke="#2F74B9" stroke-width="5"/>
    <path d="M190 62V26h25v36M228 62V10h32v52M278 62V32h40v30" fill="#CFE5F8"/>
    <rect x="340" y="22" width="42" height="40" rx="2" fill="#E4D2B6"/>
    <path d="M392 62V0h15v62" fill="#7EA7CA"/>
    <circle cx="323" cy="54" r="12" fill="#72C674"/><circle cx="417" cy="54" r="13" fill="#72C674"/>
  </g>

  <line x1="32" y1="145" x2="1168" y2="145" class="line"/>
  <line x1="438" y1="145" x2="438" y2="540" class="line"/>
  <line x1="32" y1="540" x2="1168" y2="540" class="line"/>
  <line x1="32" y1="665" x2="1168" y2="665" class="line"/>
  <line x1="790" y1="665" x2="790" y2="870" class="line"/>

  <text x="36" y="185" class="h">1. アプリアイコン（1024px）</text>
  <g transform="translate(70 210)" filter="url(#shadow)">
    <rect width="300" height="300" rx="48" fill="#F4F0EA"/>
    <path d="M0 54C70 26 125 42 190 0H300v300H0z" fill="#F7F3EC"/>
    <path d="M0 95C76 72 105 34 160 0" fill="none" stroke="#BFE3F8" stroke-width="28"/>
    <path d="M38 30c35 70 110 75 160 48s66-50 102-30" class="road"/>
    <path d="M22 205c74-47 148-50 247-40" class="road"/>
    <circle cx="58" cy="178" r="16" fill="#8BD071"/><circle cx="85" cy="190" r="13" fill="#8BD071"/>
    <rect x="226" y="172" width="34" height="52" rx="3" fill="#7EA7CA"/>
    <path d="M243 152l27 22h-54z" fill="#4F79A7"/>
    <path d="M150 48c56 0 101 45 101 101 0 80-101 135-101 135S49 229 49 149C49 93 94 48 150 48z" fill="url(#blue)"/>
    <circle cx="150" cy="147" r="61" fill="#fff"/>
    <path d="M118 142h65v41h-65z" fill="#0D47A1" transform="rotate(-8 150 163)"/>
    <path d="M184 143v40M174 143v40" stroke="#fff" stroke-width="3" stroke-dasharray="7 7"/>
    <text x="128" y="169" font-size="25" font-weight="800" fill="#fff">A・B</text><text x="186" y="168" font-size="15" font-weight="800" fill="#fff">券</text>
    <path d="M118 132v-19a32 32 0 0164 0v19" fill="none" stroke="#0D47A1" stroke-width="6" stroke-linecap="round"/>
    <path d="M0 238h300v62H0z" fill="#0D47A1"/>
    <text x="150" y="274" text-anchor="middle" font-size="29" font-weight="800" fill="#fff">こうとうお買い物どこ</text>
    <text x="150" y="296" text-anchor="middle" font-size="16" font-weight="700" fill="#fff">koto okaimono doko</text>
  </g>

  <text x="480" y="185" class="h">2. マップマーカー（ピン）</text>
  <g transform="translate(505 210)">
    <g filter="url(#soft)">
      <path d="M90 0c50 0 90 40 90 90 0 71-90 122-90 122S0 161 0 90C0 40 40 0 90 0z" fill="url(#blue)"/>
      <circle cx="90" cy="86" r="56" fill="#fff"/>
      <rect x="50" y="66" width="78" height="38" rx="4" fill="#0D47A1"/><path d="M128 66v38" stroke="#fff" stroke-width="3" stroke-dasharray="7 7"/>
      <text x="65" y="92" class="badge" fill="#fff">A・B</text><text x="122" y="91" font-size="15" font-weight="800" fill="#fff">券</text>
    </g>
    <rect x="35" y="246" width="110" height="42" rx="21" fill="#0D47A1"/><text x="90" y="275" text-anchor="middle" class="badge" fill="#fff">A・B券</text><text x="90" y="314" text-anchor="middle" class="small">A・B券 使えます</text>
  </g>
  <g transform="translate(735 210)">
    <g filter="url(#soft)">
      <path d="M90 0c50 0 90 40 90 90 0 71-90 122-90 122S0 161 0 90C0 40 40 0 90 0z" fill="url(#amber)"/>
      <circle cx="90" cy="86" r="56" fill="#fff"/>
      <rect x="54" y="66" width="76" height="38" rx="4" fill="#F5A623"/><path d="M129 66v38" stroke="#fff" stroke-width="3" stroke-dasharray="7 7"/>
      <text x="72" y="93" class="badge" fill="#fff">B</text><text x="96" y="91" font-size="18" font-weight="800" fill="#fff">券</text>
    </g>
    <rect x="34" y="246" width="112" height="42" rx="21" fill="#F5A623"/><text x="90" y="275" text-anchor="middle" class="badge" fill="#fff">B券のみ</text><text x="90" y="314" text-anchor="middle" class="small">B券のみ使えます</text>
  </g>
  <g transform="translate(965 210)">
    <g filter="url(#soft)">
      <path d="M90 0c50 0 90 40 90 90 0 71-90 122-90 122S0 161 0 90C0 40 40 0 90 0z" fill="#666"/>
      <circle cx="90" cy="86" r="56" fill="#fff"/>
      <rect x="65" y="70" width="50" height="48" fill="#777"/><rect x="45" y="88" width="22" height="30" fill="#AAA"/><rect x="116" y="88" width="22" height="30" fill="#AAA"/>
      <g fill="#fff"><rect x="74" y="80" width="8" height="8"/><rect x="92" y="80" width="8" height="8"/><rect x="74" y="98" width="8" height="8"/><rect x="92" y="98" width="8" height="8"/></g>
    </g>
    <rect x="10" y="246" width="160" height="42" rx="21" fill="#555"/><text x="90" y="275" text-anchor="middle" font-size="20" font-weight="800" fill="#fff">商業施設・モール</text><text x="90" y="314" text-anchor="middle" class="small">商業施設・モールなど</text>
  </g>

  <text x="36" y="585" class="h">3. ピルバッジ（ラベル）</text>
  <g transform="translate(44 610)" font-family="system-ui,-apple-system,BlinkMacSystemFont,sans-serif" font-weight="800" font-size="22">
    <rect x="0" y="0" width="155" height="48" rx="24" fill="#fff" stroke="#0D47A1"/><rect x="22" y="15" width="36" height="20" rx="3" fill="#0D47A1"/><text x="77" y="31" fill="#0D47A1">A・B券</text>
    <rect x="190" y="0" width="165" height="48" rx="24" fill="#fff" stroke="#F5A623"/><rect x="214" y="15" width="36" height="20" rx="3" fill="#F5A623"/><text x="268" y="31" fill="#F5A623">B券のみ</text>
    <rect x="390" y="0" width="125" height="48" rx="24" fill="#fff" stroke="#2DBE7F"/><path d="M414 12h22v26h-22z" fill="none" stroke="#2DBE7F" stroke-width="4"/><text x="455" y="31" fill="#2DBE7F">紙</text>
    <rect x="550" y="0" width="165" height="48" rx="24" fill="#fff" stroke="#2DBE7F"/><rect x="575" y="11" width="18" height="28" rx="4" fill="none" stroke="#2DBE7F" stroke-width="4"/><text x="614" y="31" fill="#2DBE7F">デジタル</text>
    <rect x="750" y="0" width="145" height="48" rx="24" fill="#fff" stroke="#333"/><path d="M778 17l30-9v32l-30-9z" fill="#333"/><text x="825" y="31" fill="#333">非公式</text>
    <rect x="930" y="0" width="170" height="48" rx="24" fill="#fff" stroke="#9CA3AF"/><rect x="956" y="14" width="24" height="24" rx="3" fill="none" stroke="#777" stroke-width="4"/><text x="996" y="31" fill="#777">データ基準日</text>
  </g>

  <text x="36" y="710" class="h">4. 各種アイコン（ボタン）</text>
  <g transform="translate(65 740)" text-anchor="middle" font-family="system-ui,-apple-system,BlinkMacSystemFont,sans-serif">
    <g><circle cx="52" cy="52" r="52" fill="#fff" filter="url(#soft)"/><circle cx="52" cy="52" r="15" fill="#0D47A1"/><circle cx="52" cy="52" r="34" fill="none" stroke="#0D47A1" stroke-width="5"/><path d="M52 10v18M52 76v18M10 52h18M76 52h18" stroke="#0D47A1" stroke-width="5" stroke-linecap="round"/><text x="52" y="132" font-size="18" font-weight="700" fill="#333">現在地ボタン</text><text x="52" y="157" font-size="16" fill="#333">（現在地）</text></g>
    <g transform="translate(185 0)"><circle cx="52" cy="52" r="52" fill="#fff" filter="url(#soft)"/><path d="M22 24h60L58 53v27H46V53z" fill="#0D47A1"/><text x="52" y="132" font-size="18" font-weight="700" fill="#333">フィルターボタン</text><text x="52" y="157" font-size="16" fill="#333">（絞り込み）</text></g>
    <g transform="translate(370 0)"><circle cx="52" cy="52" r="52" fill="#fff" filter="url(#soft)"/><path d="M52 20l8 10 13-2 5 12-8 10 8 10-5 12-13-2-8 10-8-10-13 2-5-12 8-10-8-10 5-12 13 2z" fill="#333"/><circle cx="52" cy="52" r="16" fill="#fff"/><text x="52" y="132" font-size="18" font-weight="700" fill="#333">設定ボタン</text><text x="52" y="157" font-size="16" fill="#333">（設定）</text></g>
    <g transform="translate(555 0)"><circle cx="52" cy="52" r="52" fill="#fff" filter="url(#soft)"/><path d="M24 58l62-34-22 64-14-23z" fill="#0D47A1"/><text x="52" y="132" font-size="18" font-weight="700" fill="#333">ルートボタン</text><text x="52" y="157" font-size="16" fill="#333">（経路案内）</text></g>
  </g>

  <text x="825" y="710" class="h">カラーガイド</text>
  <g transform="translate(830 745)">
    <circle cx="45" cy="32" r="26" fill="#0D47A1"/><circle cx="145" cy="32" r="26" fill="#F5A623"/><circle cx="245" cy="32" r="26" fill="#2DBE7F"/><circle cx="345" cy="32" r="26" fill="#333"/><circle cx="445" cy="32" r="26" fill="#E5E7EB"/>
    <g font-size="14" font-family="system-ui" fill="#333" text-anchor="middle"><text x="45" y="78">#0D47A1</text><text x="145" y="78">#F5A623</text><text x="245" y="78">#2DBE7F</text><text x="345" y="78">#333333</text><text x="445" y="78">#E5E7EB</text></g>
    <rect x="0" y="105" width="500" height="70" rx="16" fill="#F5F7FA"/><circle cx="38" cy="140" r="22" fill="#7BCFAE"/><path d="M28 136c0-7 9-10 14-4 5-6 14-3 14 4 0 10-14 18-14 18S28 146 28 136z" fill="#fff"/><text x="75" y="133" font-size="16" font-family="system-ui" fill="#333">地域に寄り添う、やさしく実用的なデザイン。</text><text x="75" y="158" font-size="16" font-family="system-ui" fill="#333">見やすく、使いやすいことを大切にしています。</text>
  </g>
</svg>
