<svg xmlns="http://www.w3.org/2000/svg" width="800" height="800" viewBox="0 0 800 800" role="img" aria-label="Offline cached dataset illustration">
  <defs>
    <filter id="s" x="-25%" y="-25%" width="150%" height="150%"><feDropShadow dx="0" dy="14" stdDeviation="14" flood-color="#0D47A1" flood-opacity=".13"/></filter>
    <linearGradient id="blue" x1="0" x2="1" y1="0" y2="1"><stop stop-color="#2B7DE1"/><stop offset="1" stop-color="#0D47A1"/></linearGradient>
    <linearGradient id="amber" x1="0" x2="1" y1="0" y2="1"><stop stop-color="#FFC34D"/><stop offset="1" stop-color="#F5A623"/></linearGradient>
    <linearGradient id="mint" x1="0" x2="1" y1="0" y2="1"><stop stop-color="#55D99D"/><stop offset="1" stop-color="#2DBE7F"/></linearGradient>
    <style>.road{stroke:#fff;stroke-width:12;stroke-linecap:round}.line{stroke:#D1D5DB;stroke-width:10;stroke-linecap:round}</style>
  </defs>
  <rect width="800" height="800" fill="none"/>
  <path d="M155 615c45-105 130-162 240-160 130 2 235-50 280-150v350H115c0-14 14-28 40-40z" fill="#EAF5FF" opacity=".72"/>
  <g transform="translate(120 205)" opacity=".85">
    <path d="M30 75c-18-36 15-72 54-62 15-39 74-32 82 10 34 0 52 40 27 64z" fill="#F4F7FA" stroke="#CBD5E1" stroke-width="4"/>
    <path d="M36 112c28 20 55 50 70 92" stroke="#94A3B8" stroke-width="7" stroke-linecap="round" stroke-dasharray="13 18" fill="none"/>
    <path d="M36 20l160 145" stroke="#94A3B8" stroke-width="8" stroke-linecap="round"/>
  </g>
  <g filter="url(#s)">
    <rect x="270" y="125" width="300" height="520" rx="46" fill="#fff"/>
    <rect x="354" y="150" width="130" height="30" rx="14" fill="#2B7DE1"/>
    <path d="M300 210c70 30 160-35 236 10v190H300z" fill="#F7F3EC"/>
    <path d="M312 294c68-54 143-51 215-12M315 240c58 48 130 50 206 30M352 407c42-76 96-105 176-112" class="road"/>
    <path d="M340 295c48 0 86 38 86 86 0 68-86 116-86 116s-86-48-86-116c0-48 38-86 86-86z" fill="url(#blue)" transform="translate(70 -55) scale(.9)"/>
    <circle cx="376" cy="288" r="42" fill="#fff"/><path d="M351 291l18 18 40-48" stroke="#0D47A1" stroke-width="9" stroke-linecap="round" stroke-linejoin="round" fill="none"/>
    <g transform="translate(315 430)"><rect width="210" height="70" rx="18" fill="#fff"/><rect x="18" y="17" width="46" height="46" rx="10" fill="url(#blue)"/><path d="M33 39v-12a10 10 0 0120 0v12" stroke="#fff" stroke-width="4" fill="none"/><rect x="30" y="39" width="26" height="18" fill="#fff"/><path d="M86 25h88M86 48h60" class="line"/><circle cx="190" cy="35" r="21" fill="#DDF8EB"/><path d="M180 35l9 9 20-24" stroke="#65B773" stroke-width="7" fill="none" stroke-linecap="round"/></g>
    <g transform="translate(315 520)"><rect width="210" height="70" rx="18" fill="#fff"/><rect x="18" y="17" width="46" height="46" rx="10" fill="url(#mint)"/><rect x="31" y="29" width="20" height="24" fill="#fff"/><path d="M86 25h88M86 48h60" class="line"/><circle cx="190" cy="35" r="21" fill="#DDF8EB"/><path d="M180 35l9 9 20-24" stroke="#65B773" stroke-width="7" fill="none" stroke-linecap="round"/></g>
  </g>
  <g transform="translate(565 455)" filter="url(#s)">
    <ellipse cx="72" cy="14" rx="72" ry="27" fill="#F8FAFC" stroke="#CBD5E1" stroke-width="4"/><path d="M0 14v132c0 15 32 27 72 27s72-12 72-27V14" fill="#E5EAF2"/><path d="M0 58c0 15 32 27 72 27s72-12 72-27M0 102c0 15 32 27 72 27s72-12 72-27" stroke="#AEB8C7" stroke-width="4" fill="none"/><circle cx="118" cy="56" r="7" fill="#79C86D"/><circle cx="118" cy="101" r="7" fill="#79C86D"/><circle cx="118" cy="145" r="7" fill="#79C86D"/>
  </g>
  <g transform="translate(510 575)" filter="url(#s)"><path d="M0 35c0-14 11-25 25-25h65l25 28h102c14 0 25 11 25 25v100H0z" fill="url(#amber)"/><circle cx="122" cy="92" r="38" fill="#fff"/><path d="M103 92l14 14 33-39" stroke="#65B773" stroke-width="10" stroke-linecap="round" stroke-linejoin="round" fill="none"/></g>
</svg>
