<svg xmlns="http://www.w3.org/2000/svg" width="800" height="800" viewBox="0 0 800 800" role="img" aria-label="Dataset update and transparency illustration">
  <defs>
    <filter id="s" x="-25%" y="-25%" width="150%" height="150%"><feDropShadow dx="0" dy="14" stdDeviation="14" flood-color="#0D47A1" flood-opacity=".13"/></filter>
    <linearGradient id="blue" x1="0" x2="1" y1="0" y2="1"><stop stop-color="#2B7DE1"/><stop offset="1" stop-color="#0D47A1"/></linearGradient>
    <linearGradient id="mint" x1="0" x2="1" y1="0" y2="1"><stop stop-color="#55D99D"/><stop offset="1" stop-color="#2DBE7F"/></linearGradient>
  </defs>
  <rect width="800" height="800" fill="none"/>
  <path d="M205 570c55-110 142-162 258-154 120 8 198-40 230-115v345H160c5-26 21-51 45-76z" fill="#EAF5FF" opacity=".75"/>
  <ellipse cx="400" cy="640" rx="270" ry="32" fill="#0D47A1" opacity=".09"/>
  <g transform="translate(150 305)" filter="url(#s)">
    <ellipse cx="110" cy="0" rx="110" ry="42" fill="#F8FAFC" stroke="#CBD5E1" stroke-width="5"/>
    <path d="M0 0v210c0 24 49 42 110 42s110-18 110-42V0" fill="#E5EAF2"/>
    <path d="M0 70c0 24 49 42 110 42s110-18 110-42M0 140c0 24 49 42 110 42s110-18 110-42" stroke="#AEB8C7" stroke-width="5" fill="none"/>
    <circle cx="48" cy="66" r="9" fill="#0D47A1"/><circle cx="48" cy="136" r="9" fill="#0D47A1"/>
  </g>
  <g transform="translate(305 338)" filter="url(#s)">
    <circle cx="110" cy="110" r="100" fill="#fff"/>
    <path d="M110 36a74 74 0 0170 50" fill="none" stroke="#0D47A1" stroke-width="16" stroke-linecap="round"/><path d="M180 86l-3-38 35 16z" fill="#0D47A1"/>
    <path d="M110 184a74 74 0 01-70-50" fill="none" stroke="#0D47A1" stroke-width="16" stroke-linecap="round" opacity=".9"/>
    <path d="M110 72v78" stroke="#0D47A1" stroke-width="18" stroke-linecap="round"/><path d="M76 120l34 34 34-34" fill="none" stroke="#0D47A1" stroke-width="18" stroke-linecap="round" stroke-linejoin="round"/>
  </g>
  <g transform="translate(525 280)" filter="url(#s)">
    <path d="M80 0l17 42 45 3-34 29 11 44-39-23-39 23 11-44-34-29 45-3z" fill="#333" opacity=".94"/>
    <circle cx="80" cy="60" r="34" fill="#EAF5FF"/>
  </g>
  <g transform="translate(486 455)" filter="url(#s)">
    <path d="M92 0l72 32v62c0 51-35 86-72 106-37-20-72-55-72-106V32z" fill="#fff" stroke="#2DBE7F" stroke-width="10"/>
    <circle cx="92" cy="73" r="13" fill="#2DBE7F"/><rect x="80" y="98" width="24" height="60" rx="12" fill="#2DBE7F"/>
  </g>
  <g transform="translate(120 493)">
    <circle cx="55" cy="55" r="50" fill="#79C86D" filter="url(#s)"/><rect x="50" y="50" width="10" height="78" rx="5" fill="#4B6B3C"/><path d="M55 50c-30-18-10-60 24-48 29 10 14 55-24 48z" fill="#8BD071"/><path d="M55 55c35-16 56 28 26 48-26 18-49-20-26-48z" fill="#65B773"/>
  </g>
  <g fill="#BFE3F8" opacity=".9"><path d="M245 225c-17-25 17-55 41-34 8-28 48-27 57 0 23-7 45 18 30 40z"/><path d="M560 190c-14-20 12-43 33-26 7-22 38-21 45 0 18-5 35 14 24 31z"/></g>
  <path d="M258 210l20 33 33-20-20 33 20 33-33-20-20 33 20-33-33-20 33-20z" fill="#2B7DE1" opacity=".85"/>
  <path d="M632 250l16 27 27-16-16 27 16 27-27-16-16 27 16-27-27-16 27-16z" fill="#F5A623" opacity=".9"/>
</svg>
