<svg xmlns="http://www.w3.org/2000/svg" width="800" height="800" viewBox="0 0 800 800" role="img" aria-label="Location permission illustration">
  <defs>
    <filter id="s" x="-25%" y="-25%" width="150%" height="150%"><feDropShadow dx="0" dy="14" stdDeviation="14" flood-color="#0D47A1" flood-opacity=".13"/></filter>
    <linearGradient id="blue" x1="0" x2="1" y1="0" y2="1"><stop stop-color="#2B7DE1"/><stop offset="1" stop-color="#0D47A1"/></linearGradient>
    <linearGradient id="mint" x1="0" x2="1" y1="0" y2="1"><stop stop-color="#55D99D"/><stop offset="1" stop-color="#2DBE7F"/></linearGradient>
    <style>.road{stroke:#fff;stroke-width:13;stroke-linecap:round}</style>
  </defs>
  <rect width="800" height="800" fill="none"/>
  <ellipse cx="400" cy="642" rx="275" ry="32" fill="#0D47A1" opacity=".09"/>
  <path d="M240 585c40-115 126-175 241-164 110 11 190-45 220-126v350H180c4-22 23-42 60-60z" fill="#EAF5FF" opacity=".65"/>
  <g filter="url(#s)">
    <rect x="270" y="92" width="290" height="555" rx="44" fill="#fff"/>
    <rect x="360" y="116" width="110" height="12" rx="6" fill="#D1D5DB"/>
    <path d="M300 190c70 30 160-35 236 10v350H300z" fill="#F7F3EC"/>
    <path d="M300 335c70-70 140-58 238-38" class="road"/><path d="M315 225c62 70 132 70 220 26" class="road"/><path d="M365 540c40-88 103-135 180-145" class="road"/>
    <path d="M316 442C382 392 439 372 538 380" stroke="#BFE3F8" stroke-width="26" fill="none" stroke-linecap="round"/>
    <circle cx="410" cy="366" r="72" fill="#DDEBFF"/><circle cx="410" cy="366" r="48" fill="#CDE3FF"/><circle cx="410" cy="366" r="24" fill="#0D47A1"/><path d="M410 275v38M410 420v38M319 366h38M463 366h38" stroke="#0D47A1" stroke-width="7" stroke-linecap="round"/>
    <circle cx="345" cy="245" r="22" fill="#79C86D"/><rect x="340" y="245" width="8" height="42" rx="4" fill="#805F42"/><circle cx="482" cy="205" r="21" fill="#79C86D"/><rect x="478" y="205" width="8" height="42" rx="4" fill="#805F42"/><circle cx="488" cy="500" r="18" fill="#79C86D"/><rect x="484" y="500" width="8" height="38" rx="4" fill="#805F42"/>
  </g>
  <g transform="translate(162 410)" filter="url(#s)">
    <path d="M100 0c56 0 100 45 100 100 0 78-100 132-100 132S0 178 0 100C0 45 45 0 100 0z" fill="url(#blue)"/>
    <circle cx="100" cy="96" r="62" fill="#fff"/>
    <circle cx="100" cy="96" r="18" fill="#0D47A1"/><circle cx="100" cy="96" r="38" fill="none" stroke="#0D47A1" stroke-width="7"/><path d="M100 38v22M100 132v22M42 96h22M136 96h22" stroke="#0D47A1" stroke-width="7" stroke-linecap="round"/>
  </g>
  <g transform="translate(492 360)" filter="url(#s)">
    <rect width="205" height="142" rx="28" fill="#fff"/>
    <path d="M64 35l45 20v37c0 26-20 44-45 56-25-12-45-30-45-56V55z" fill="url(#mint)"/>
    <path d="M45 84l16 16 36-43" stroke="#fff" stroke-width="10" stroke-linecap="round" stroke-linejoin="round" fill="none"/>
    <path d="M126 68h58M126 100h42" stroke="#D1D5DB" stroke-width="10" stroke-linecap="round"/>
    <circle cx="194" cy="12" r="38" fill="url(#mint)"/><path d="M176 12l13 14 28-34" stroke="#fff" stroke-width="10" stroke-linecap="round" stroke-linejoin="round" fill="none"/>
  </g>
  <g transform="translate(525 568)"><path d="M0 40l60-48 60 48v75H0z" fill="#fff" filter="url(#s)"/><path d="M0 42l60-48 60 48" stroke="#2B7DE1" stroke-width="13" stroke-linecap="round" stroke-linejoin="round" fill="none"/><rect x="27" y="68" width="26" height="47" fill="#4F79A7"/><rect x="70" y="68" width="28" height="28" fill="#6DA4E7"/></g>
</svg>
