<svg xmlns="http://www.w3.org/2000/svg" width="800" height="800" viewBox="0 0 800 800" role="img" aria-label="Mall facility group illustration">
  <defs>
    <filter id="s" x="-25%" y="-25%" width="150%" height="150%"><feDropShadow dx="0" dy="14" stdDeviation="14" flood-color="#111827" flood-opacity=".13"/></filter>
    <linearGradient id="g" x1="0" x2="1" y1="0" y2="1"><stop stop-color="#777"/><stop offset="1" stop-color="#333"/></linearGradient>
    <linearGradient id="blue" x1="0" x2="1" y1="0" y2="1"><stop stop-color="#2B7DE1"/><stop offset="1" stop-color="#0D47A1"/></linearGradient>
    <linearGradient id="amber" x1="0" x2="1" y1="0" y2="1"><stop stop-color="#FFC34D"/><stop offset="1" stop-color="#F5A623"/></linearGradient>
    <linearGradient id="mint" x1="0" x2="1" y1="0" y2="1"><stop stop-color="#55D99D"/><stop offset="1" stop-color="#2DBE7F"/></linearGradient>
  </defs>
  <rect width="800" height="800" fill="none"/>
  <ellipse cx="400" cy="650" rx="190" ry="34" fill="#0D47A1" opacity=".10"/>
  <g filter="url(#s)">
    <path d="M400 120c118 0 214 96 214 214 0 170-214 290-214 290S186 504 186 334c0-118 96-214 214-214z" fill="url(#g)"/>
    <circle cx="400" cy="312" r="150" fill="#fff"/>
    <g transform="translate(285 240)">
      <rect x="0" y="62" width="230" height="104" rx="12" fill="#F4F0EA"/>
      <rect x="46" y="20" width="138" height="146" rx="10" fill="#E8DCC9"/>
      <path d="M65 20c14-35 87-35 101 0z" fill="#666"/>
      <rect x="84" y="42" width="62" height="70" rx="6" fill="#A7D3EF" stroke="#4F79A7" stroke-width="5"/>
      <rect x="82" y="122" width="66" height="44" rx="5" fill="#5DA5D5"/>
      <rect x="12" y="94" width="46" height="72" fill="#D9C5A3"/><rect x="174" y="94" width="46" height="72" fill="#D9C5A3"/>
      <rect x="17" y="75" width="40" height="24" fill="#F5A623"/><rect x="178" y="76" width="38" height="23" fill="#777"/>
      <rect x="22" y="110" width="26" height="28" fill="#A7D3EF"/><rect x="186" y="110" width="24" height="28" fill="#A7D3EF"/>
      <circle cx="-16" cy="150" r="22" fill="#79C86D"/><rect x="-20" y="150" width="8" height="42" rx="4" fill="#805F42"/><circle cx="246" cy="150" r="22" fill="#79C86D"/><rect x="242" y="150" width="8" height="42" rx="4" fill="#805F42"/>
    </g>
  </g>
  <g filter="url(#s)">
    <circle cx="205" cy="220" r="64" fill="#fff"/><rect x="170" y="205" width="70" height="34" rx="4" fill="url(#blue)"/><path d="M238 205v34" stroke="#fff" stroke-width="4" stroke-dasharray="8 8"/>
    <circle cx="615" cy="265" r="60" fill="#fff"/><rect x="585" y="250" width="60" height="30" rx="4" fill="url(#amber)"/><path d="M642 250v30" stroke="#fff" stroke-width="4" stroke-dasharray="8 8"/>
    <circle cx="240" cy="535" r="55" fill="#fff"/><rect x="214" y="522" width="52" height="26" rx="4" fill="url(#mint)"/><path d="M263 522v26" stroke="#fff" stroke-width="4" stroke-dasharray="7 7"/>
    <circle cx="595" cy="560" r="55" fill="#fff"/><rect x="569" y="547" width="52" height="26" rx="4" fill="#777"/><path d="M618 547v26" stroke="#fff" stroke-width="4" stroke-dasharray="7 7"/>
  </g>
</svg>
