<svg xmlns="http://www.w3.org/2000/svg" width="800" height="800" viewBox="0 0 800 800" role="img" aria-label="Map empty search illustration">
  <defs>
    <filter id="s" x="-20%" y="-20%" width="140%" height="140%"><feDropShadow dx="0" dy="14" stdDeviation="14" flood-color="#0D47A1" flood-opacity=".12"/></filter>
    <linearGradient id="pin" x1="0" x2="1" y1="0" y2="1"><stop stop-color="#2B7DE1"/><stop offset="1" stop-color="#0D47A1"/></linearGradient>
    <linearGradient id="amber" x1="0" x2="1" y1="0" y2="1"><stop stop-color="#FFC34D"/><stop offset="1" stop-color="#F5A623"/></linearGradient>
    <style>.road{stroke:#fff;stroke-width:18;stroke-linecap:round}.muted{fill:#F4F0EA}</style>
  </defs>
  <rect width="800" height="800" fill="none"/>
  <g filter="url(#s)">
    <rect x="100" y="115" width="600" height="535" rx="42" fill="#F7F3EC"/>
    <path d="M100 215C180 130 280 160 350 112h350v538H100z" fill="#F9F6F1"/>
    <path d="M92 244C178 214 190 128 252 110" stroke="#BFE3F8" stroke-width="36" fill="none" stroke-linecap="round"/>
    <path d="M410 650c50-80 150-104 290-98v98z" fill="#CDEDBC"/>
    <path d="M310 118l-82 160M640 165L165 610M150 430l510-195M260 650l400-405M115 315c145 45 228 30 350-35M130 545c130-100 300-112 530-82" class="road" opacity=".85"/>
    <path d="M310 150h120l40 90-110 55-90-70z" fill="#B9E59D" opacity=".75"/>
    <g transform="translate(192 384)"><rect width="118" height="78" rx="8" fill="#F8FAFC"/><path d="M0 0h118v32H0z" fill="#2B7DE1"/><path d="M0 28c12 18 25 18 39 0 13 18 26 18 39 0 13 18 27 18 40 0" fill="#6DA4E7"/><rect x="20" y="44" width="25" height="34" rx="3" fill="#2B7DE1"/><rect x="68" y="46" width="32" height="23" rx="3" fill="#BFE3F8"/></g>
    <g transform="translate(545 270)"><rect width="100" height="72" rx="8" fill="#FFFDF8"/><path d="M0 0h100v30H0z" fill="#F5A623"/><path d="M0 26c12 17 23 17 34 0 11 17 22 17 33 0 11 17 22 17 33 0" fill="#FFC34D"/><rect x="16" y="42" width="22" height="30" rx="3" fill="#D9C5A3"/><rect x="58" y="43" width="28" height="20" rx="3" fill="#E6D6BC"/></g>
    <path d="M400 300c52 0 94 42 94 94 0 76-94 125-94 125s-94-49-94-125c0-52 42-94 94-94z" fill="url(#pin)"/>
    <circle cx="400" cy="390" r="43" fill="#fff" opacity=".95"/>
    <ellipse cx="400" cy="528" rx="65" ry="20" fill="#0D47A1" opacity=".15"/>
    <path d="M505 510l145 28c14 3 23 16 20 30l-12 58c-3 14-16 23-30 20l-145-28c-14-3-23-16-20-30l12-58c3-14 16-23 30-20z" fill="url(#amber)"/>
    <path d="M590 528l-16 84" stroke="#fff" stroke-width="5" stroke-dasharray="12 10"/>
    <g transform="translate(150 545)"><circle cx="0" cy="0" r="56" fill="#fff" filter="url(#s)"/><circle cx="-8" cy="-8" r="23" fill="none" stroke="#666" stroke-width="8"/><path d="M10 10l28 28" stroke="#666" stroke-width="8" stroke-linecap="round"/></g>
    <g fill="#79C86D"><circle cx="348" cy="180" r="22"/><circle cx="388" cy="170" r="25"/><circle cx="646" cy="420" r="20"/></g>
  </g>
</svg>
